<?xml version="1.0" encoding="UTF-8"?>
<svg id="Layer_1" data-name="Layer 1" xmlns="http://www.w3.org/2000/svg" xmlns:xlink="http://www.w3.org/1999/xlink" viewBox="0 0 89.9 32.37">
  <defs>
    <style>
      .cls-1 {
        fill: url(#linear-gradient-2);
      }

      .cls-2 {
        fill: url(#linear-gradient-6);
      }

      .cls-3 {
        fill: url(#linear-gradient-5);
      }

      .cls-4 {
        fill: url(#linear-gradient-7);
      }

      .cls-5 {
        fill: url(#linear-gradient-3);
      }

      .cls-6 {
        fill: url(#linear-gradient);
      }

      .cls-7 {
        fill: url(#linear-gradient-4);
      }

      .cls-8 {
        fill: url(#linear-gradient-8);
      }
    </style>
    <linearGradient id="linear-gradient" x1="43.26" y1="22.83" x2="68.4" y2="22.83" gradientUnits="userSpaceOnUse">
      <stop offset="0" stop-color="#eaa159"/>
      <stop offset="1" stop-color="#eaa159"/>
    </linearGradient>
    <linearGradient id="linear-gradient-2" x1="0" y1="22.71" x2="25.09" y2="22.71" xlink:href="#linear-gradient"/>
    <linearGradient id="linear-gradient-3" x1="64.94" y1="22.82" x2="89.9" y2="22.82" xlink:href="#linear-gradient"/>
    <linearGradient id="linear-gradient-4" x1="21.63" y1="22.84" x2="46.93" y2="22.84" xlink:href="#linear-gradient"/>
    <linearGradient id="linear-gradient-5" x1="28.3" y1="5.89" x2="40.1" y2="5.89" xlink:href="#linear-gradient"/>
    <linearGradient id="linear-gradient-6" x1="71.57" y1="5.91" x2="83.35" y2="5.91" xlink:href="#linear-gradient"/>
    <linearGradient id="linear-gradient-7" x1="6.55" y1="5.92" x2="18.35" y2="5.92" xlink:href="#linear-gradient"/>
    <linearGradient id="linear-gradient-8" x1="49.92" y1="5.9" x2="61.65" y2="5.9" xlink:href="#linear-gradient"/>
  </defs>
  <path class="cls-6" d="m49.6,23.32c-.44,1.55-.88,3.1-1.31,4.64-.59,2.11-1.71,2.95-3.39,2.38-1.78-.61-1.86-2.06-1.39-3.54.96-3.02,1.91-6.05,3.07-9,1.13-2.88,3.38-4.39,6.5-4.46,1.89-.04,3.79-.08,5.68-.02,3.54.1,5.49,2.38,6.68,5.32,1.11,2.73,1.89,5.59,2.78,8.41.47,1.51.05,2.81-1.5,3.31-1.65.53-2.8-.31-3.3-1.92-.51-1.64-.94-3.3-1.82-4.93-.12,2.05-.24,4.11-.35,6.16-.1,1.87-1.1,2.72-2.94,2.69-1.52-.03-3.03.03-4.55-.03-2.78-.11-3.55-.95-3.57-3.81,0-1.7,0-3.4,0-5.11l-.6-.08h.01Z"/>
  <path class="cls-1" d="m6.29,23.38c-.43,1.57-.86,3.14-1.29,4.71-.46,1.68-1.42,2.73-3.29,2.26-1.76-.44-1.93-1.92-1.53-3.27.97-3.25,2.08-6.47,3.29-9.63.36-.94,1.16-1.79,1.93-2.5,3.94-3.6,14.28-1.77,16.47,3.07,1.33,2.94,2.14,6.13,3.07,9.24.45,1.5-.08,2.79-1.75,3.12-1.7.34-2.69-.54-3.09-2.22-.38-1.6-.88-3.18-1.33-4.77h-.64c0,1.88,0,3.76,0,5.64.02,2.27-1.12,3.35-3.36,3.32-1.59-.02-3.18-.09-4.77-.06-2.03.04-2.91-1.09-2.99-2.93-.08-1.96-.02-3.93-.02-5.89-.24-.03-.47-.07-.71-.1h.01Z"/>
  <path class="cls-5" d="m64.94,13.31c5.54,0,10.61-.11,15.67.05,2.4.07,4.47,1.35,5.43,3.59,1.4,3.25,2.55,6.61,3.63,9.99.49,1.53.33,3.17-1.74,3.51-1.94.33-2.67-.99-3.08-2.6-.38-1.51-.8-3.01-1.21-4.52-.23.02-.45.03-.68.05,0,1.83.02,3.65,0,5.48-.03,2.81-.54,3.38-3.26,3.47-1.59.05-3.18-.05-4.77.02-2.26.1-3.13-1.14-3.25-3.18-.17-3.03-.28-6.06-.53-9.08-.05-.61-.68-1.73-.9-1.7-2.69.42-3.19-1.8-4.25-3.34-.29-.42-.54-.88-1.06-1.74h0Z"/>
  <path class="cls-7" d="m27.37,18.3c-3.85.52-3.79-2.95-5.74-4.91h25.3c-2.03,1.68-1.91,4.97-5.37,4.96-.34,0-.91,1.24-1,1.95-.36,3.01-.6,6.03-.83,9.06-.16,2.05-1.22,2.98-3.26,2.92-1.44-.04-2.88.01-4.32-.02-2.76-.06-3.52-.87-3.76-3.69-.29-3.32-.65-6.63-1.02-10.26h0Z"/>
  <path class="cls-3" d="m28.3,5.8C28.37,2.57,31.19-.13,34.35,0c3.1.13,5.76,2.87,5.75,5.92,0,3.21-2.74,5.87-6,5.85-3.29-.02-5.87-2.68-5.8-5.98h0Z"/>
  <path class="cls-2" d="m77.31,11.79c-3.26-.06-5.81-2.76-5.74-6.07.07-3.13,2.81-5.78,5.89-5.7,3.28.08,5.96,2.8,5.89,5.99-.07,3.28-2.75,5.85-6.04,5.79h0Z"/>
  <path class="cls-4" d="m18.35,6.23c-.12,3.29-2.82,5.72-6.17,5.55-3.05-.16-5.79-3.11-5.62-6.04C6.74,2.66,9.57-.03,12.55.04c3.44.08,5.92,2.73,5.8,6.2h0Z"/>
  <path class="cls-8" d="m61.65,5.91c0,3.29-2.43,5.81-5.66,5.87-3.32.06-6.07-2.54-6.07-5.73S52.5.06,55.75.02c3.3-.05,5.9,2.54,5.9,5.89h0Z"/>
</svg>