<svg id="Capa_2" data-name="Capa 2" xmlns="http://www.w3.org/2000/svg" viewBox="0 0 1920 1080"><defs><style>.cls-1{fill:#e4a55b;}.cls-2{fill:#feffff;}</style></defs><circle class="cls-1" cx="700.03" cy="301.51" r="49.85"/><circle class="cls-1" cx="884.1" cy="301.51" r="49.85"/><circle class="cls-1" cx="1064.34" cy="301.51" r="49.85"/><circle class="cls-1" cx="1248.41" cy="301.51" r="49.85"/><path class="cls-1" d="M748.44,368.08a8.79,8.79,0,0,0-4.79-1.38H658.57c-3.64,0-5.73.66-7.21,1.55-25.5,16.05-49.49,53.33-54.61,118.21-.07.5-.1,1-.13,1.53s-.12,2.35-.08,2.82a19.17,19.17,0,0,0,20.51,17.73c10.09-.73,16.53-9.23,17.7-19.12,1.33-11.3,6.29-26.34,15.43-42.81v55.17a26,26,0,0,0,26,26h47.73a26,26,0,0,0,26-26V440.5c11.22,16.34,18.85,44.63,19.08,48.92,0,0,.11.92.15,1.39A19.17,19.17,0,0,0,807.35,488C804.17,452,777.87,389.13,748.44,368.08Z"/><path class="cls-1" d="M967.26,404.77s8.88-22.33,24.48-41.9H776.66c14.26,19.38,23.13,41.9,23.13,41.9H829l5.29,93.17a26,26,0,0,0,26,26H908a26,26,0,0,0,26-26l5.29-93.17Z"/><path class="cls-1" d="M1113,366.78a8.9,8.9,0,0,0-4.79-1.37h-85.09c-3.64,0-5.73.65-7.2,1.55-25.51,16-49.5,53.32-54.61,118.21-.08.5-.1,1-.14,1.52s-.11,2.35-.08,2.82a19.18,19.18,0,0,0,20.51,17.74c10.09-.74,16.54-9.24,17.7-19.13,1.33-11.3,6.29-26.34,15.43-42.81v55.17a26,26,0,0,0,26,26h47.73a26,26,0,0,0,26-26V439.2c11.23,16.34,18.86,44.63,19.08,48.92,0,0,.12.92.15,1.39a19.18,19.18,0,1,0,38.25-2.78C1168.74,450.67,1142.44,387.83,1113,366.78Z"/><path class="cls-1" d="M1351.87,489.42c-4.36-47-30.53-107.45-55.39-121.9a12.72,12.72,0,0,0-4.49-.82H1144.63a219.36,219.36,0,0,1,21.09,41.91h28l4.88,93.17a26,26,0,0,0,26,26h47.73a26,26,0,0,0,26-26V445.57c8.24,14.41,15,36.69,15.39,45.24.53,10.58,9.95,18.5,20.51,17.73C1344.26,507.81,1352.78,499.33,1351.87,489.42Z"/><path class="cls-2" d="M25.7,882.09,116.77,645h33.81l97.06,237.14H211.89l-27.66-71.82H85.07L59,882.09Zm68.43-97.38h80.39L149.77,719Q138.45,689.12,133,669.87a302.5,302.5,0,0,1-12.78,45.29Z"/><path class="cls-2" d="M264,830.82l28.79-4.53q2.43,17.31,13.51,26.53t31,9.22q20.06,0,29.76-8.17t9.71-19.17q0-9.87-8.58-15.53-6-3.88-29.76-9.87-32-8.09-44.4-14T275.21,779a43.27,43.27,0,0,1-6.39-23.05,44.19,44.19,0,0,1,5.26-21.27,47.1,47.1,0,0,1,14.32-16.26q6.8-5,18.52-8.49a88,88,0,0,1,25.15-3.48q20.22,0,35.51,5.83T390.14,728q7.28,9.94,10,26.61l-28.47,3.88q-1.93-13.26-11.24-20.71t-26.29-7.44q-20.06,0-28.63,6.63T297,752.53a16,16,0,0,0,3.56,10.19q3.56,4.69,11.16,7.76,4.37,1.62,25.72,7.44,30.9,8.25,43.11,13.51a43.71,43.71,0,0,1,19.17,15.29q6.94,10,6.95,24.91A48.87,48.87,0,0,1,398.15,859q-8.49,12.87-24.51,19.9t-36.23,7q-33.48,0-51-13.92T264,830.82Z"/><path class="cls-2" d="M437,796.2q0-47.72,26.53-70.69,22.17-19.08,54-19.09,35.43,0,57.91,23.22T598,793.77q0,33.16-10,52.17a70.43,70.43,0,0,1-29,29.52A84.29,84.29,0,0,1,517.6,886q-36.08,0-58.31-23.14T437,796.2Zm29.93,0q0,33,14.4,49.42T517.6,862q21.67,0,36.07-16.5t14.4-50.31q0-31.87-14.48-48.28t-36-16.43q-21.84,0-36.23,16.34T467,796.2Z"/><path class="cls-2" d="M638.75,882.09V710.3h26v24.11a61.2,61.2,0,0,1,21.51-20.3q13.43-7.68,30.57-7.69,19.1,0,31.3,7.93a42.4,42.4,0,0,1,17.23,22.16q20.39-30.09,53.06-30.09,25.56,0,39.31,14.16t13.75,43.59V882.09h-29V773.88q0-17.48-2.83-25.16a24.39,24.39,0,0,0-10.27-12.37A32.05,32.05,0,0,0,812,731.66q-18.12,0-30.09,12.05t-12,38.58v99.8H740.82V770.48q0-19.41-7.11-29.12t-23.3-9.7a42.32,42.32,0,0,0-22.72,6.47,36.69,36.69,0,0,0-15.13,18.92q-4.69,12.47-4.69,35.91v89.13Z"/><path class="cls-2" d="M1033.44,860.9q-16.17,13.76-31.14,19.42A90.06,90.06,0,0,1,970.19,886q-28.31,0-43.51-13.83t-15.2-35.35A47.88,47.88,0,0,1,932.26,797a70.39,70.39,0,0,1,21-9.54q8.56-2.26,25.88-4.37,35.26-4.22,51.92-10,.16-6,.17-7.61,0-17.79-8.25-25.07-11.16-9.85-33.16-9.87-20.55,0-30.33,7.21T945,763.2l-28.47-3.88q3.88-18.29,12.78-29.52T955,712.49q16.82-6.07,39-6.07,22,0,35.75,5.18t20.22,13q6.46,7.85,9.06,19.82,1.45,7.44,1.46,26.85v38.82q0,40.6,1.86,51.36a64.39,64.39,0,0,0,7.36,20.62h-30.41A61.37,61.37,0,0,1,1033.44,860.9Zm-2.43-65q-15.85,6.47-47.55,11-18,2.58-25.4,5.82a25.3,25.3,0,0,0-11.48,9.46,25.72,25.72,0,0,0,4.77,33.24q8.82,7.77,25.8,7.77,16.82,0,29.93-7.36a45.35,45.35,0,0,0,19.24-20.14q4.7-9.87,4.69-29.12Z"/><path class="cls-2" d="M1112.21,882.09V710.3h26v24.11a61.2,61.2,0,0,1,21.51-20.3q13.43-7.68,30.57-7.69,19.08,0,31.3,7.93a42.4,42.4,0,0,1,17.23,22.16q20.39-30.09,53.06-30.09,25.56,0,39.3,14.16T1345,764.17V882.09h-29V773.88q0-17.48-2.83-25.16a24.39,24.39,0,0,0-10.27-12.37,32.05,32.05,0,0,0-17.47-4.69q-18.12,0-30.09,12.05t-12,38.58v99.8h-29.12V770.48q0-19.41-7.11-29.12t-23.3-9.7a42.32,42.32,0,0,0-22.72,6.47A36.69,36.69,0,0,0,1146,757.05q-4.69,12.47-4.69,35.91v89.13Z"/><path class="cls-2" d="M1512.4,826.77l30.08,3.72q-7.11,26.37-26.36,40.93T1466.94,886q-37.7,0-59.77-23.22t-22.08-65.1q0-43.35,22.33-67.3t57.91-23.94q34.45,0,56.29,23.46t21.84,66q0,2.58-.17,7.76H1415.18q1.62,28.32,16,43.35t35.91,15q16,0,27.33-8.42T1512.4,826.77Zm-95.6-47.07h95.92q-1.93-21.68-11-32.52-13.9-16.81-36.07-16.82-20.06,0-33.73,13.43T1416.8,779.7Z"/><path class="cls-2" d="M1697.77,819.17l28.63,3.72q-4.7,29.61-24,46.34T1654.9,886q-35.26,0-56.7-23.05t-21.43-66.08q0-27.83,9.22-48.69t28.07-31.3a83.21,83.21,0,0,1,41-10.44q28,0,45.78,14.16t22.81,40.2l-28.31,4.36q-4-17.31-14.31-26t-24.83-8.74q-22,0-35.75,15.78T1606.7,796q0,34.61,13.26,50.3t34.62,15.7q17.14,0,28.63-10.52T1697.77,819.17Z"/><path class="cls-2" d="M1747.1,796.2q0-47.72,26.53-70.69,22.15-19.08,54-19.09,35.43,0,57.91,23.22t22.49,64.13q0,33.16-10,52.17a70.38,70.38,0,0,1-29,29.52A84.29,84.29,0,0,1,1827.65,886q-36.06,0-58.31-23.14T1747.1,796.2Zm29.92,0q0,33,14.4,49.42T1827.65,862q21.67,0,36.08-16.5t14.39-50.31q0-31.87-14.47-48.28t-36-16.43q-21.83,0-36.23,16.34T1777,796.2Z"/></svg>